<svg xmlns="http://www.w3.org/2000/svg" version="1.1" xmlns:xlink="http://www.w3.org/1999/xlink"
    xmlns:svgjs="http://svgjs.dev/svgjs" width="2000" height="1247" viewBox="0 0 2000 1247">
    <g transform="matrix(1,0,0,1,-1.2121212121212466,-0.8950155898733101)"><svg viewBox="0 0 396 247"
            data-background-color="currentColor" preserveAspectRatio="xMidYMid meet" height="1247" width="2000"
            xmlns="http://www.w3.org/2000/svg" xmlns:xlink="http://www.w3.org/1999/xlink">
            <g id="tight-bounds" transform="matrix(1,0,0,1,0.2400000000000091,0.17729629924090773)"><svg
                    viewBox="0 0 395.52 246.64542279412586" height="246.64542279412586" width="395.52">
                    <g><svg viewBox="0 0 397.4975999999999 247.87864990809646" height="246.64542279412586"
                            width="395.52">
                            <g>
                                <rect width="397.4975999999999" height="5.089542555220403" x="0" y="138.7258622193343"
                                    fill="current" opacity="1" stroke-width="0" stroke="transparent" fill-opacity="1"
                                    class="rect-o-0" data-fill-palette-color="secondary" rx="1%" id="o-0"
                                    data-palette-color="#b19dd0"></rect>
                            </g>
                            <g transform="matrix(1,0,0,1,0.9887999999999693,157.13881460497458)"><svg
                                    viewBox="0 0 395.52 90.73983530312185" height="90.73983530312185" width="395.52">
                                    <g id="textblocktransform"><svg viewBox="0 0 395.52 90.73983530312185"
                                            height="90.73983530312185" width="395.52" id="textblock">
                                            <g><svg viewBox="0 0 395.52 56.43695178849143" height="56.43695178849143"
                                                    width="395.52">
                                                    <g transform="matrix(1,0,0,1,0,0)"><svg width="395.52"
                                                            viewBox="2.1500000953674316 -35.900001525878906 257.19000244140625 36.70000076293945"
                                                            height="56.43695178849143" data-palette-color="#a437db">
                                                            <path
                                                                d="M26-23.8L22.7-23.8Q22.25-26.6 21.1-28.48 19.95-30.35 18.18-31.3 16.4-32.25 14.05-32.2L14.05-32.2Q11.9-32.2 10.28-31 8.65-29.8 8.65-27.9L8.65-27.9Q8.65-26.35 9.53-25.2 10.4-24.05 12.2-23.05 14-22.05 16.75-20.9L16.75-20.9Q18.65-20.15 20.65-19.15 22.65-18.15 24.35-16.78 26.05-15.4 27.1-13.58 28.15-11.75 28.15-9.3L28.15-9.3Q28.15-6.35 26.55-4.05 24.95-1.75 22.08-0.48 19.2 0.8 15.35 0.8L15.35 0.8Q13.35 0.8 11.03 0.18 8.7-0.45 6.65-1.65L6.65-1.65 6.8 0.45 2.95 0.45 2.95-11.25 6.25-11.25Q6.95-7.05 9.47-4.93 12-2.8 15.5-2.8L15.5-2.8Q17.3-2.8 18.65-3.45 20-4.1 20.75-5.18 21.5-6.25 21.5-7.5L21.5-7.5Q21.5-9.25 20.28-10.4 19.05-11.55 17.23-12.35 15.4-13.15 13.5-13.9L13.5-13.9Q11.1-14.9 9.03-16.03 6.95-17.15 5.4-18.6 3.85-20.05 3-21.93 2.15-23.8 2.15-26.25L2.15-26.25Q2.15-27.8 2.75-29.48 3.35-31.15 4.7-32.58 6.05-34 8.3-34.9 10.55-35.8 13.85-35.8L13.85-35.8Q15.85-35.8 18.23-35.2 20.6-34.6 22.3-33.4L22.3-33.4 22.1-35.45 26-35.45 26-23.8ZM61.45-23.8L58.2-23.8Q57.55-27.95 55.42-30.05 53.3-32.15 49.8-32.2L49.8-32.2Q47.2-32.2 45.25-31 43.3-29.8 42.02-27.8 40.75-25.8 40.12-23.25 39.5-20.7 39.5-18L39.5-18Q39.5-13.7 40.72-10.38 41.95-7.05 44.3-5.15 46.65-3.25 50-3.25L50-3.25Q53.15-3.25 56.25-4.88 59.35-6.5 61.45-9.4L61.45-9.4 63.85-7.2Q61.4-3.85 58.7-2.13 56-0.4 53.42 0.2 50.85 0.8 48.8 0.8L48.8 0.8Q44.95 0.8 41.8-0.58 38.65-1.95 36.37-4.38 34.1-6.8 32.87-10.03 31.65-13.25 31.65-17L31.65-17Q31.65-20.4 32.75-23.75 33.85-27.1 36.02-29.83 38.2-32.55 41.5-34.18 44.8-35.8 49.15-35.8L49.15-35.8Q51.1-35.8 53.42-35.18 55.75-34.55 57.8-33.35L57.8-33.35 57.6-35.45 61.45-35.45 61.45-23.8ZM74.84 0L64.14 0 64.14-3.45Q65.55-3.45 66.39-4.25 67.25-5.05 67.82-6.35 68.39-7.65 68.94-9.15L68.94-9.15 78.69-35.9 82.19-35.9 92.84-8.65Q93.15-7.9 93.65-6.38 94.15-4.85 94.25-3.7L94.25-3.7Q95.09-3.8 95.87-3.83 96.65-3.85 97.15-3.85L97.15-3.85 97.15 0 83.69 0 83.69-3.3Q85.09-3.3 85.62-3.88 86.15-4.45 86.09-5.45 86.05-6.45 85.55-7.7L85.55-7.7 84.55-10.45 73.69-10.25 72.89-7.9Q72.64-7.25 72.17-5.98 71.69-4.7 71.3-3.85L71.3-3.85Q72.09-3.95 73.22-3.98 74.34-4 74.84-4L74.84-4 74.84 0ZM77.19-20.5L74.94-14 83.3-14 81-20.25Q80.34-22.05 79.84-23.88 79.34-25.7 79.09-27.1L79.09-27.1 79.05-27.1Q78.84-26.25 78.44-24.55 78.05-22.85 77.19-20.5L77.19-20.5ZM122.39 0.5L117.74 0.5Q116.04-3.65 114.37-7.75 112.69-11.85 110.99-15.95L110.99-15.95Q110.59-16.9 109.97-18.63 109.34-20.35 108.67-22.6 107.99-24.85 107.44-27.25L107.44-27.25Q107.54-24.45 107.59-21.98 107.64-19.5 107.59-17.25L107.59-17.25Q107.59-16.15 107.59-15 107.59-13.85 107.57-12.73 107.54-11.6 107.54-10.48 107.54-9.35 107.54-8.2L107.54-8.2Q107.54-6.85 107.47-5.6 107.39-4.35 107.29-3.7L107.29-3.7Q108.14-3.8 109.37-3.83 110.59-3.85 111.09-3.85L111.09-3.85 111.09 0 99.69 0 99.69-3.3Q100.84-3.35 101.62-3.6 102.39-3.85 102.82-4.75 103.24-5.65 103.24-7.65L103.24-7.65 103.54-26.8Q103.59-28.15 103.64-29.4 103.69-30.65 103.74-31.3L103.74-31.3Q102.94-31.25 101.74-31.23 100.54-31.2 99.99-31.15L99.99-31.15 99.99-35 111.04-35 118.59-15.65Q119.04-14.5 119.59-12.98 120.14-11.45 120.64-10.03 121.14-8.6 121.39-7.75L121.39-7.75 121.44-7.75Q122.09-9.5 122.64-11.15 123.19-12.8 123.79-14.35L123.79-14.35Q125.74-19.55 127.67-24.7 129.59-29.85 131.54-35L131.54-35 143.09-35 143.09-31.7Q141.99-31.65 141.14-31.4 140.29-31.15 139.87-30.28 139.44-29.4 139.49-27.35L139.49-27.35 140.24-8.2Q140.34-6.85 140.24-5.6 140.14-4.35 140.04-3.7L140.04-3.7Q140.89-3.8 142.12-3.83 143.34-3.85 143.84-3.85L143.84-3.85 143.84 0 129.94 0 129.94-3.3Q131.09-3.35 131.92-3.6 132.74-3.85 133.17-4.75 133.59-5.65 133.49-7.65L133.49-7.65 133.09-18.25Q133.09-18.85 132.99-20.33 132.89-21.8 132.82-23.58 132.74-25.35 132.69-26.9L132.69-26.9Q132.54-26.55 132.39-26.23 132.24-25.9 132.14-25.55L132.14-25.55 122.39 0.5ZM170.99 0.5L166.34 0.5Q164.64-3.65 162.97-7.75 161.29-11.85 159.59-15.95L159.59-15.95Q159.19-16.9 158.56-18.63 157.94-20.35 157.26-22.6 156.59-24.85 156.04-27.25L156.04-27.25Q156.14-24.45 156.19-21.98 156.24-19.5 156.19-17.25L156.19-17.25Q156.19-16.15 156.19-15 156.19-13.85 156.16-12.73 156.14-11.6 156.14-10.48 156.14-9.35 156.14-8.2L156.14-8.2Q156.14-6.85 156.06-5.6 155.99-4.35 155.89-3.7L155.89-3.7Q156.74-3.8 157.97-3.83 159.19-3.85 159.69-3.85L159.69-3.85 159.69 0 148.29 0 148.29-3.3Q149.44-3.35 150.22-3.6 150.99-3.85 151.41-4.75 151.84-5.65 151.84-7.65L151.84-7.65 152.14-26.8Q152.19-28.15 152.24-29.4 152.29-30.65 152.34-31.3L152.34-31.3Q151.54-31.25 150.34-31.23 149.14-31.2 148.59-31.15L148.59-31.15 148.59-35 159.64-35 167.19-15.65Q167.64-14.5 168.19-12.98 168.74-11.45 169.24-10.03 169.74-8.6 169.99-7.75L169.99-7.75 170.04-7.75Q170.69-9.5 171.24-11.15 171.79-12.8 172.39-14.35L172.39-14.35Q174.34-19.55 176.26-24.7 178.19-29.85 180.14-35L180.14-35 191.69-35 191.69-31.7Q190.59-31.65 189.74-31.4 188.89-31.15 188.47-30.28 188.04-29.4 188.09-27.35L188.09-27.35 188.84-8.2Q188.94-6.85 188.84-5.6 188.74-4.35 188.64-3.7L188.64-3.7Q189.49-3.8 190.72-3.83 191.94-3.85 192.44-3.85L192.44-3.85 192.44 0 178.54 0 178.54-3.3Q179.69-3.35 180.51-3.6 181.34-3.85 181.76-4.75 182.19-5.65 182.09-7.65L182.09-7.65 181.69-18.25Q181.69-18.85 181.59-20.33 181.49-21.8 181.41-23.58 181.34-25.35 181.29-26.9L181.29-26.9Q181.14-26.55 180.99-26.23 180.84-25.9 180.74-25.55L180.74-25.55 170.99 0.5ZM217.34-12.05L214.04-12.05Q214.04-14.15 213.39-15.08 212.74-16 211.61-16.25 210.49-16.5 209.14-16.45L209.14-16.45 207.84-16.4 207.84-8.2Q207.84-6.85 207.79-5.65 207.74-4.45 207.64-3.8L207.64-3.8 214.34-3.8Q215.84-3.8 217.24-4.48 218.64-5.15 219.54-6.73 220.44-8.3 220.44-11L220.44-11 223.69-11 223.44 0 197.04 0 197.04-3.3Q198.19-3.35 198.96-3.6 199.74-3.85 200.16-4.75 200.59-5.65 200.59-7.65L200.59-7.65 200.59-26.8Q200.59-28.15 200.66-29.4 200.74-30.65 200.79-31.3L200.79-31.3Q199.99-31.25 198.79-31.23 197.59-31.2 197.04-31.15L197.04-31.15 197.04-35 222.04-35 222.34-25.3 219.04-25.3Q219.04-28.05 218.09-29.45 217.14-30.85 215.74-31.33 214.34-31.8 212.99-31.75L212.99-31.75 211.19-31.7Q210.14-31.7 209.39-31.43 208.64-31.15 208.24-30.23 207.84-29.3 207.84-27.35L207.84-27.35 207.84-19.85 213.69-19.85 213.49-24.2 217.34-24.2 217.34-12.05ZM243.09 0L228.24 0 228.24-3.3Q229.39-3.35 230.16-3.6 230.94-3.85 231.36-4.75 231.79-5.65 231.79-7.65L231.79-7.65 231.79-26.8Q231.79-28.15 231.86-29.4 231.94-30.65 231.99-31.3L231.99-31.3Q231.19-31.25 229.99-31.23 228.79-31.2 228.24-31.15L228.24-31.15 228.24-35Q231.79-35.05 235.34-35.05 238.89-35.05 242.44-35.1L242.44-35.1Q246.84-35.15 250.09-34.1 253.34-33.05 255.09-30.7 256.84-28.35 256.74-24.35L256.74-24.35Q256.69-22.25 255.71-20.35 254.74-18.45 252.81-17 250.89-15.55 247.94-14.7L247.94-14.7Q248.89-14.3 249.81-13.4 250.74-12.5 251.39-11.5L251.39-11.5 253.74-8Q254.84-6.3 255.69-5.3 256.54-4.3 257.38-3.83 258.24-3.35 259.34-3.3L259.34-3.3 259.34 0 251.09 0Q250.19-0.65 249.31-1.88 248.44-3.1 247.44-4.7L247.44-4.7 243.74-10.7Q243.09-11.7 242.61-12.4 242.14-13.1 241.64-13.6L241.64-13.6Q240.84-13.6 240.29-13.6 239.74-13.6 239.04-13.6L239.04-13.6 239.04-8.25Q239.04-6.85 238.99-5.6 238.94-4.35 238.84-3.7L238.84-3.7Q239.39-3.75 240.24-3.78 241.09-3.8 241.91-3.83 242.74-3.85 243.09-3.85L243.09-3.85 243.09 0ZM241.44-17.2L241.44-17.2Q244.24-17.2 245.94-18.03 247.64-18.85 248.41-20.53 249.19-22.2 249.19-24.75L249.19-24.75Q249.19-27.15 248.44-28.53 247.69-29.9 246.56-30.58 245.44-31.25 244.29-31.43 243.14-31.6 242.39-31.6L242.39-31.6Q241.34-31.6 240.59-31.35 239.84-31.1 239.44-30.25 239.04-29.4 239.04-27.65L239.04-27.65 239.04-17.4Q239.59-17.35 240.19-17.28 240.79-17.2 241.44-17.2Z"
                                                                opacity="1" transform="matrix(1,0,0,1,0,0)"
                                                                fill="currentColor" class="wordmark-text-0"
                                                                data-fill-palette-color="primary" id="text-0"></path>
                                                        </svg></g>
                                                </svg></g>
                                            <g transform="matrix(1,0,0,1,0,69.76036161891133)"><svg
                                                    viewBox="0 0 395.52 20.979473684210525" height="20.979473684210525"
                                                    width="395.52">
                                                    <g transform="matrix(1,0,0,1,0,0)"><svg width="395.52"
                                                            viewBox="4 -35.599998474121094 851.2000122070312 45.14999771118164"
                                                            height="20.979473684210525" data-palette-color="#b19dd0">
                                                            <path
                                                                d="M27.95-33.7L27.95-12.75Q27.95-6.25 24.8-2.93 21.65 0.4 15.9 0.4L15.9 0.4Q10.25 0.4 7.13-2.85 4-6.1 4-12.35L4-12.35 4-33.7 7.1-33.7 7.1-12.4Q7.1-7.35 9.47-4.98 11.85-2.6 15.9-2.6L15.9-2.6Q24.85-2.6 24.85-12.65L24.85-12.65 24.85-33.7 27.95-33.7ZM54.9-17.7L54.9 0 51.85 0 51.85-16.75Q51.85-19.7 50.35-21.25 48.85-22.8 46.4-22.8L46.4-22.8Q43.3-22.8 41.05-20.43 38.8-18.05 38.8-14L38.8-14 38.8 0 35.75 0 35.75-25.35 38.8-25.35 38.8-21Q41.15-25.75 46.85-25.75L46.85-25.75Q50.5-25.75 52.7-23.5 54.9-21.25 54.9-17.7L54.9-17.7ZM65.45-35.35L65.45 0 62.4 0 62.4-35.35 65.45-35.35ZM95.25-12.55L95.25-12.55Q95.25-6.9 92.08-3.23 88.9 0.45 83.35 0.45L83.35 0.45Q78 0.45 74.85-3.25 71.7-6.95 71.7-12.55L71.7-12.55Q71.7-18.1 74.95-21.9 78.2-25.7 83.35-25.7L83.35-25.7Q89-25.7 92.13-21.98 95.25-18.25 95.25-12.55ZM74.9-12.55L74.9-12.55Q74.9-8.4 77.23-5.43 79.55-2.45 83.35-2.45L83.35-2.45Q87.5-2.45 89.78-5.38 92.05-8.3 92.05-12.55L92.05-12.55Q92.05-16.95 89.9-19.88 87.75-22.8 83.35-22.8L83.35-22.8Q79.4-22.8 77.15-19.8 74.9-16.8 74.9-12.55ZM118.35-3.95L118.35-0.85Q116.2 0.6 112.8 0.6L112.8 0.6Q106.65 0.6 103.2-3.28 99.75-7.15 99.75-12.6L99.75-12.6Q99.75-17.9 103.28-21.85 106.8-25.8 112.8-25.8L112.8-25.8Q115.9-25.8 118.35-24.45L118.35-24.45 118.35-21.35Q116.1-22.85 113.1-22.85L113.1-22.85Q108.45-22.85 105.7-19.83 102.95-16.8 102.95-12.55L102.95-12.55Q102.95-8.25 105.6-5.3 108.25-2.35 113.15-2.35L113.15-2.35Q116.2-2.35 118.35-3.95L118.35-3.95ZM127.95-35.35L127.95 0 124.9 0 124.9-35.35 127.95-35.35ZM142.75-25.35L132.4-13.3 143.1 0 139.3 0 128.7-13.3 139-25.35 142.75-25.35ZM151.25-25.35L151.25 0 148.2 0 148.2-25.35 151.25-25.35ZM151.22-34.98Q151.85-34.35 151.85-33.45 151.85-32.55 151.22-31.95 150.6-31.35 149.7-31.35 148.8-31.35 148.2-31.95 147.6-32.55 147.6-33.45 147.6-34.35 148.2-34.98 148.8-35.6 149.7-35.6 150.6-35.6 151.22-34.98ZM178.2-17.7L178.2 0 175.15 0 175.15-16.75Q175.15-19.7 173.65-21.25 172.15-22.8 169.7-22.8L169.7-22.8Q166.6-22.8 164.35-20.43 162.1-18.05 162.1-14L162.1-14 162.1 0 159.05 0 159.05-25.35 162.1-25.35 162.1-21Q164.45-25.75 170.15-25.75L170.15-25.75Q173.8-25.75 176-23.5 178.2-21.25 178.2-17.7L178.2-17.7ZM205.15-25.35L205.15-1.95Q205.15 3.8 202.05 6.68 198.95 9.55 194.05 9.55L194.05 9.55Q189.7 9.55 186.65 8.1L186.65 8.1 186.65 5.1Q189.75 6.65 193.8 6.65L193.8 6.65Q197.6 6.65 199.85 4.58 202.1 2.5 202.1-1.95L202.1-1.95 202.1-5.25Q199.55-0.6 194.5-0.6L194.5-0.6Q190.1-0.6 187.02-3.85 183.95-7.1 183.95-12.65L183.95-12.65Q183.95-18.35 186.77-22.05 189.6-25.75 194.2-25.75L194.2-25.75Q199.65-25.75 202.1-20.9L202.1-20.9 202.1-25.35 205.15-25.35ZM187.15-12.8L187.15-12.8Q187.15-8.25 189.45-5.88 191.75-3.5 194.55-3.5L194.55-3.5Q197.4-3.5 199.75-5.73 202.1-7.95 202.1-12.55L202.1-12.55Q202.1-17.8 199.85-20.33 197.6-22.85 194.8-22.85L194.8-22.85Q191.25-22.85 189.2-20.05 187.15-17.25 187.15-12.8ZM232.3-12.8L232.3-12.8 226.75-12.8 226.75 0 223.65 0 223.65-33.7 231.75-33.7Q237.65-33.7 241.02-30.73 244.4-27.75 244.4-22.9L244.4-22.9Q244.4-18.7 241.12-15.75 237.85-12.8 232.3-12.8ZM232.1-30.95L232.1-30.95 226.75-30.95 226.75-15.55 232.65-15.55Q236.6-15.55 238.92-17.65 241.25-19.75 241.25-22.9L241.25-22.9Q241.25-26.6 238.85-28.78 236.45-30.95 232.1-30.95ZM272.45-12.55L272.45-12.55Q272.45-6.9 269.27-3.23 266.1 0.45 260.55 0.45L260.55 0.45Q255.2 0.45 252.05-3.25 248.9-6.95 248.9-12.55L248.9-12.55Q248.9-18.1 252.15-21.9 255.4-25.7 260.55-25.7L260.55-25.7Q266.2-25.7 269.32-21.98 272.45-18.25 272.45-12.55ZM252.1-12.55L252.1-12.55Q252.1-8.4 254.42-5.43 256.75-2.45 260.55-2.45L260.55-2.45Q264.7-2.45 266.97-5.38 269.25-8.3 269.25-12.55L269.25-12.55Q269.25-16.95 267.1-19.88 264.95-22.8 260.55-22.8L260.55-22.8Q256.6-22.8 254.35-19.8 252.1-16.8 252.1-12.55ZM290.65-3.8L290.65-0.7Q289.2 0.25 287.3 0.25L287.3 0.25Q280.1 0.25 280.1-7.15L280.1-7.15 280.1-22.75 275.95-22.75 275.95-25.35 280.1-25.35 280.1-31.7 283.2-31.7 283.2-25.35 290.45-25.35 290.45-22.75 283.2-22.75 283.2-7Q283.2-2.65 287.25-2.65L287.25-2.65Q289.25-2.65 290.65-3.8L290.65-3.8ZM314.85-4.35L314.85-1.25Q311.85 0.25 307.85 0.25L307.85 0.25Q302.2 0.25 298.67-3.28 295.15-6.8 295.15-12.55L295.15-12.55Q295.15-18.65 298.25-22.15 301.35-25.65 306.3-25.65L306.3-25.65Q310.95-25.65 313.7-22.6 316.45-19.55 316.45-14L316.45-14Q316.45-12.3 316.25-11.3L316.25-11.3 298.35-11.3Q298.7-7.1 301.25-4.88 303.8-2.65 308-2.65L308-2.65Q312.3-2.65 314.85-4.35L314.85-4.35ZM306.2-22.8L306.2-22.8Q303-22.8 300.85-20.55 298.7-18.3 298.35-14.1L298.35-14.1 313.3-14.1 313.3-15.25Q313.3-18.7 311.38-20.75 309.45-22.8 306.2-22.8ZM341.8-17.7L341.8 0 338.75 0 338.75-16.75Q338.75-19.7 337.25-21.25 335.75-22.8 333.3-22.8L333.3-22.8Q330.2-22.8 327.95-20.43 325.7-18.05 325.7-14L325.7-14 325.7 0 322.65 0 322.65-25.35 325.7-25.35 325.7-21Q328.05-25.75 333.75-25.75L333.75-25.75Q337.4-25.75 339.6-23.5 341.8-21.25 341.8-17.7L341.8-17.7ZM361.25-3.8L361.25-0.7Q359.8 0.25 357.9 0.25L357.9 0.25Q350.7 0.25 350.7-7.15L350.7-7.15 350.7-22.75 346.55-22.75 346.55-25.35 350.7-25.35 350.7-31.7 353.8-31.7 353.8-25.35 361.05-25.35 361.05-22.75 353.8-22.75 353.8-7Q353.8-2.65 357.85-2.65L357.85-2.65Q359.85-2.65 361.25-3.8L361.25-3.8ZM370.55-25.35L370.55 0 367.5 0 367.5-25.35 370.55-25.35ZM370.52-34.98Q371.15-34.35 371.15-33.45 371.15-32.55 370.52-31.95 369.9-31.35 369-31.35 368.1-31.35 367.5-31.95 366.9-32.55 366.9-33.45 366.9-34.35 367.5-34.98 368.1-35.6 369-35.6 369.9-35.6 370.52-34.98ZM385.7-2.55L385.7-2.55Q388.7-2.55 390.5-4.2 392.3-5.85 392.3-8.4L392.3-8.4 392.3-12.05 387.35-12.05Q383.8-12.05 382.05-10.68 380.3-9.3 380.3-7.25L380.3-7.25Q380.3-5.15 381.67-3.85 383.05-2.55 385.7-2.55ZM392.3 0L392.3-2.95Q390.2 0.25 385 0.25L385 0.25Q381.5 0.25 379.27-1.83 377.05-3.9 377.05-7.15L377.05-7.15Q377.05-10.8 379.87-12.83 382.7-14.85 387.35-14.85L387.35-14.85 392.3-14.85 392.3-16Q392.3-19.4 390.85-21.13 389.4-22.85 386-22.85L386-22.85Q382.05-22.85 378.9-20.7L378.9-20.7 378.9-24Q381.8-25.75 386.05-25.75L386.05-25.75Q395.35-25.75 395.35-16L395.35-16 395.35 0 392.3 0ZM405.9-35.35L405.9 0 402.85 0 402.85-35.35 405.9-35.35ZM443.4-33.7L443.4-30.85 434.05-30.85 434.05 0 430.95 0 430.95-30.85 421.65-30.85 421.65-33.7 443.4-33.7ZM467.1-17.7L467.1 0 464.05 0 464.05-16.75Q464.05-19.7 462.55-21.25 461.05-22.8 458.6-22.8L458.6-22.8Q455.5-22.8 453.25-20.43 451-18.05 451-14L451-14 451 0 447.95 0 447.95-35.35 451-35.35 451-21Q453.3-25.75 459.05-25.75L459.05-25.75Q462.7-25.75 464.9-23.5 467.1-21.25 467.1-17.7L467.1-17.7ZM477.45-14.15L477.45 0 474.4 0 474.4-25.35 477.45-25.35 477.45-21.05Q479.55-25.65 484.55-25.65L484.55-25.65Q484.9-25.65 485.8-25.55L485.8-25.55 485.8-22.45Q484.8-22.75 483.8-22.75L483.8-22.75Q481.1-22.75 479.27-20.08 477.45-17.4 477.45-14.15L477.45-14.15ZM512.1-12.55L512.1-12.55Q512.1-6.9 508.92-3.23 505.75 0.45 500.2 0.45L500.2 0.45Q494.85 0.45 491.7-3.25 488.55-6.95 488.55-12.55L488.55-12.55Q488.55-18.1 491.8-21.9 495.05-25.7 500.2-25.7L500.2-25.7Q505.85-25.7 508.97-21.98 512.1-18.25 512.1-12.55ZM491.75-12.55L491.75-12.55Q491.75-8.4 494.07-5.43 496.4-2.45 500.2-2.45L500.2-2.45Q504.35-2.45 506.62-5.38 508.9-8.3 508.9-12.55L508.9-12.55Q508.9-16.95 506.75-19.88 504.6-22.8 500.2-22.8L500.2-22.8Q496.25-22.8 494-19.8 491.75-16.8 491.75-12.55ZM537-25.35L537 0 533.95 0 533.95-4.55Q531.95 0.35 525.9 0.35L525.9 0.35Q522.2 0.35 520.02-1.88 517.85-4.1 517.85-7.75L517.85-7.75 517.85-25.35 520.9-25.35 520.9-8.6Q520.9-5.7 522.42-4.15 523.95-2.6 526.45-2.6L526.45-2.6Q529.8-2.6 531.87-5 533.95-7.4 533.95-11.25L533.95-11.25 533.95-25.35 537-25.35ZM564.25-25.35L564.25-1.95Q564.25 3.8 561.15 6.68 558.05 9.55 553.15 9.55L553.15 9.55Q548.8 9.55 545.75 8.1L545.75 8.1 545.75 5.1Q548.85 6.65 552.9 6.65L552.9 6.65Q556.7 6.65 558.95 4.58 561.2 2.5 561.2-1.95L561.2-1.95 561.2-5.25Q558.65-0.6 553.6-0.6L553.6-0.6Q549.2-0.6 546.13-3.85 543.05-7.1 543.05-12.65L543.05-12.65Q543.05-18.35 545.88-22.05 548.7-25.75 553.3-25.75L553.3-25.75Q558.75-25.75 561.2-20.9L561.2-20.9 561.2-25.35 564.25-25.35ZM546.25-12.8L546.25-12.8Q546.25-8.25 548.55-5.88 550.85-3.5 553.65-3.5L553.65-3.5Q556.5-3.5 558.85-5.73 561.2-7.95 561.2-12.55L561.2-12.55Q561.2-17.8 558.95-20.33 556.7-22.85 553.9-22.85L553.9-22.85Q550.35-22.85 548.3-20.05 546.25-17.25 546.25-12.8ZM590.7-17.7L590.7 0 587.65 0 587.65-16.75Q587.65-19.7 586.15-21.25 584.65-22.8 582.2-22.8L582.2-22.8Q579.1-22.8 576.85-20.43 574.6-18.05 574.6-14L574.6-14 574.6 0 571.55 0 571.55-35.35 574.6-35.35 574.6-21Q576.9-25.75 582.65-25.75L582.65-25.75Q586.3-25.75 588.5-23.5 590.7-21.25 590.7-17.7L590.7-17.7ZM627.7-33.7L627.7-30.85 618.35-30.85 618.35 0 615.25 0 615.25-30.85 605.95-30.85 605.95-33.7 627.7-33.7ZM650.4-4.35L650.4-1.25Q647.4 0.25 643.4 0.25L643.4 0.25Q637.75 0.25 634.23-3.28 630.7-6.8 630.7-12.55L630.7-12.55Q630.7-18.65 633.8-22.15 636.9-25.65 641.85-25.65L641.85-25.65Q646.5-25.65 649.25-22.6 652-19.55 652-14L652-14Q652-12.3 651.8-11.3L651.8-11.3 633.9-11.3Q634.25-7.1 636.8-4.88 639.35-2.65 643.55-2.65L643.55-2.65Q647.85-2.65 650.4-4.35L650.4-4.35ZM641.75-22.8L641.75-22.8Q638.55-22.8 636.4-20.55 634.25-18.3 633.9-14.1L633.9-14.1 648.85-14.1 648.85-15.25Q648.85-18.7 646.93-20.75 645-22.8 641.75-22.8ZM675.25-3.95L675.25-0.85Q673.1 0.6 669.7 0.6L669.7 0.6Q663.55 0.6 660.1-3.28 656.65-7.15 656.65-12.6L656.65-12.6Q656.65-17.9 660.18-21.85 663.7-25.8 669.7-25.8L669.7-25.8Q672.8-25.8 675.25-24.45L675.25-24.45 675.25-21.35Q673-22.85 670-22.85L670-22.85Q665.35-22.85 662.6-19.83 659.85-16.8 659.85-12.55L659.85-12.55Q659.85-8.25 662.5-5.3 665.15-2.35 670.05-2.35L670.05-2.35Q673.1-2.35 675.25-3.95L675.25-3.95ZM700.95-17.7L700.95 0 697.9 0 697.9-16.75Q697.9-19.7 696.4-21.25 694.9-22.8 692.45-22.8L692.45-22.8Q689.35-22.8 687.1-20.43 684.85-18.05 684.85-14L684.85-14 684.85 0 681.8 0 681.8-35.35 684.85-35.35 684.85-21Q687.15-25.75 692.9-25.75L692.9-25.75Q696.55-25.75 698.75-23.5 700.95-21.25 700.95-17.7L700.95-17.7ZM727.4-17.7L727.4 0 724.35 0 724.35-16.75Q724.35-19.7 722.85-21.25 721.35-22.8 718.9-22.8L718.9-22.8Q715.8-22.8 713.55-20.43 711.3-18.05 711.3-14L711.3-14 711.3 0 708.25 0 708.25-25.35 711.3-25.35 711.3-21Q713.65-25.75 719.35-25.75L719.35-25.75Q723-25.75 725.2-23.5 727.4-21.25 727.4-17.7L727.4-17.7ZM756.7-12.55L756.7-12.55Q756.7-6.9 753.53-3.23 750.35 0.45 744.8 0.45L744.8 0.45Q739.45 0.45 736.3-3.25 733.15-6.95 733.15-12.55L733.15-12.55Q733.15-18.1 736.4-21.9 739.65-25.7 744.8-25.7L744.8-25.7Q750.45-25.7 753.58-21.98 756.7-18.25 756.7-12.55ZM736.35-12.55L736.35-12.55Q736.35-8.4 738.68-5.43 741-2.45 744.8-2.45L744.8-2.45Q748.95-2.45 751.23-5.38 753.5-8.3 753.5-12.55L753.5-12.55Q753.5-16.95 751.35-19.88 749.2-22.8 744.8-22.8L744.8-22.8Q740.85-22.8 738.6-19.8 736.35-16.8 736.35-12.55ZM766-35.35L766 0 762.95 0 762.95-35.35 766-35.35ZM795.8-12.55L795.8-12.55Q795.8-6.9 792.63-3.23 789.45 0.45 783.9 0.45L783.9 0.45Q778.55 0.45 775.4-3.25 772.25-6.95 772.25-12.55L772.25-12.55Q772.25-18.1 775.5-21.9 778.75-25.7 783.9-25.7L783.9-25.7Q789.55-25.7 792.68-21.98 795.8-18.25 795.8-12.55ZM775.45-12.55L775.45-12.55Q775.45-8.4 777.78-5.43 780.1-2.45 783.9-2.45L783.9-2.45Q788.05-2.45 790.33-5.38 792.6-8.3 792.6-12.55L792.6-12.55Q792.6-16.95 790.45-19.88 788.3-22.8 783.9-22.8L783.9-22.8Q779.95-22.8 777.7-19.8 775.45-16.8 775.45-12.55ZM821.5-25.35L821.5-1.95Q821.5 3.8 818.4 6.68 815.3 9.55 810.4 9.55L810.4 9.55Q806.05 9.55 803 8.1L803 8.1 803 5.1Q806.1 6.65 810.15 6.65L810.15 6.65Q813.95 6.65 816.2 4.58 818.45 2.5 818.45-1.95L818.45-1.95 818.45-5.25Q815.9-0.6 810.85-0.6L810.85-0.6Q806.45-0.6 803.38-3.85 800.3-7.1 800.3-12.65L800.3-12.65Q800.3-18.35 803.13-22.05 805.95-25.75 810.55-25.75L810.55-25.75Q816-25.75 818.45-20.9L818.45-20.9 818.45-25.35 821.5-25.35ZM803.5-12.8L803.5-12.8Q803.5-8.25 805.8-5.88 808.1-3.5 810.9-3.5L810.9-3.5Q813.75-3.5 816.1-5.73 818.45-7.95 818.45-12.55L818.45-12.55Q818.45-17.8 816.2-20.33 813.95-22.85 811.15-22.85L811.15-22.85Q807.6-22.85 805.55-20.05 803.5-17.25 803.5-12.8ZM848.15-25.35L838.95-0.65Q837.05 4.5 834.45 6.45 831.85 8.4 828.55 8.4L828.55 8.4Q827.55 8.4 826.65 8.15L826.65 8.15 826.65 5.15Q827.55 5.4 828.35 5.4L828.35 5.4Q833.7 5.4 835.8-0.7L835.8-0.7 825.45-25.35 828.95-25.35 832.4-16.85 837.3-4.65Q837.65-5.8 841.65-16.85L841.65-16.85 844.75-25.35 848.15-25.35ZM854.48-3.98Q855.2-3.25 855.2-2.15 855.2-1.05 854.48-0.33 853.75 0.4 852.65 0.4 851.55 0.4 850.83-0.33 850.1-1.05 850.1-2.15 850.1-3.25 850.83-3.98 851.55-4.7 852.65-4.7 853.75-4.7 854.48-3.98Z"
                                                                opacity="1" transform="matrix(1,0,0,1,0,0)"
                                                                fill="currentColor" class="slogan-text-1"
                                                                data-fill-palette-color="secondary" id="text-1"></path>
                                                        </svg></g>
                                                </svg></g>
                                        </svg></g>
                                </svg></g>
                            <g transform="matrix(1,0,0,1,93.90954311219943,0)"><svg
                                    viewBox="0 0 209.67851377560106 125.4024523889144" height="125.4024523889144"
                                    width="209.67851377560106">
                                    <g><svg xmlns="http://www.w3.org/2000/svg"
                                            xmlns:xlink="http://www.w3.org/1999/xlink" version="1.1" x="8" y="0"
                                            viewBox="16.8439998626709 28.60800552368164 67.60699462890625 43.77399826049805"
                                            enable-background="new 0 0 101 101" xml:space="preserve"
                                            height="125.4024523889144" width="193.67851377560106" class="icon-icon-0"
                                            data-fill-palette-color="accent" id="icon-0">
                                            <g fill="#a437db" data-fill-palette-color="accent">
                                                <g fill="#a437db" data-fill-palette-color="accent">
                                                    <path
                                                        d="M67.155 33.417l-4.869 4.809 12.425 12.269L62.286 62.764l4.869 4.81 17.296-17.079L67.155 33.417zM34.14 33.417L16.844 50.495 34.14 67.573l4.871-4.81L26.584 50.495l12.427-12.269L34.14 33.417zM41.876 72.382h7.301l9.742-43.774h-7.303L41.876 72.382z"
                                                        fill="currentColor" data-fill-palette-color="accent"></path>
                                                </g>
                                            </g>
                                        </svg></g>
                                </svg></g>
                            <g>
                                <rect width="17.37642311219946" height="5.089542555220403" y="119.312909833694"
                                    x="303.58805688780046" fill="currentColor" data-fill-palette-color="secondary">
                                </rect>
                                <rect width="17.37642311219946" height="5.089542555220403" y="119.312909833694"
                                    x="76.53311999999997" fill="currentColor" data-fill-palette-color="secondary">
                                </rect>
                            </g>
                        </svg></g>
                    <defs></defs>
                </svg>
                <rect width="395.52" height="246.64542279412586" fill="none" stroke="none" visibility="hidden"></rect>
            </g>
        </svg></g>
</svg>